<svg xmlns="http://www.w3.org/2000/svg" width="128" height="128" viewBox="0 0 24 24">
  <!-- Database cylinder icon - Based on Tabler Icons (MIT License) -->
  <!-- Body fills -->
  <path d="M4 6v6c0 1.657 3.582 3 8 3s8-1.343 8-3V6c0 1.657-3.582 3-8 3S4 7.657 4 6z" fill="#3B82F6"/>
  <path d="M4 12v6c0 1.657 3.582 3 8 3s8-1.343 8-3v-6c0 1.657-3.582 3-8 3s-8-1.343-8-3z" fill="#2563EB"/>
  <!-- Top ellipse -->
  <ellipse cx="12" cy="6" rx="8" ry="3" fill="#60A5FA"/>
  <!-- Strokes -->
  <ellipse cx="12" cy="6" rx="8" ry="3" fill="none" stroke="#1E40AF" stroke-width="0.75"/>
  <path d="M4 6v12c0 1.657 3.582 3 8 3s8-1.343 8-3V6" fill="none" stroke="#1E40AF" stroke-width="0.75"/>
  <path d="M4 12c0 1.657 3.582 3 8 3s8-1.343 8-3" fill="none" stroke="#1E40AF" stroke-width="0.5" opacity="0.7"/>
</svg>
